<svg xmlns="http://www.w3.org/2000/svg" viewBox="0 0 64 64">
  <defs>
    <linearGradient id="bg" x1="0%" y1="0%" x2="100%" y2="100%">
      <stop offset="0%" stop-color="#4caf50" />
      <stop offset="100%" stop-color="#2e7d32" />
    </linearGradient>
  </defs>
  <rect width="64" height="64" rx="16" fill="url(#bg)" />
  <path
    fill="#ffffff"
    d="M15 22.667A4.667 4.667 0 0 1 19.667 18h24A4.667 4.667 0 0 1 48.333 22.667V24H51.667A4 4 0 0 1 55.667 28v18.667A4 4 0 0 1 51.667 50.667H47.667V52A4.667 4.667 0 0 1 43 56.667H19.667A4.667 4.667 0 0 1 15 52V22.667Zm4 0.267V52c0 .368.299.667.667.667H43c.368 0 .667-.299.667-.667v-1.333H36.333A4.667 4.667 0 0 1 31.667 46V28.667A4.667 4.667 0 0 1 36.333 24H43.667v-1.333A.667.667 0 0 0 43 22H19.667a.667.667 0 0 0-.667.667Zm16.667 5.733V46c0 .368.299.667.667.667h15.333V28H36.333a.667.667 0 0 0-.667.667ZM47 37.333A2 2 0 1 1 43 37.333a2 2 0 0 1 4 0Z"
  />
</svg>
